<?xml version="1.0" standalone="no"?>
<!DOCTYPE svg PUBLIC "-//W3C//DTD SVG 20010904//EN"
 "http://www.w3.org/TR/2001/REC-SVG-20010904/DTD/svg10.dtd">
<svg version="1.0" xmlns="http://www.w3.org/2000/svg"
 width="26.000000pt" height="7.000000pt" viewBox="0 0 26.000000 7.000000"
 preserveAspectRatio="xMidYMid meet">

<g transform="translate(0.000000,7.000000) scale(0.100000,-0.100000)"
fill="#000000" stroke="none">
<path d="M12 58 c-7 -7 -12 -16 -12 -22 0 -5 6 -1 14 10 12 16 17 17 28 6 11
-11 10 -16 -6 -28 -11 -8 -15 -14 -9 -14 6 0 16 7 23 15 10 12 10 18 0 30 -15
18 -22 19 -38 3z"/>
<path d="M112 58 c-7 -7 -12 -16 -12 -22 0 -5 6 -1 14 10 12 16 17 17 28 6 11
-11 10 -16 -6 -28 -11 -8 -15 -14 -9 -14 6 0 16 7 23 15 10 12 10 18 0 30 -15
18 -22 19 -38 3z"/>
<path d="M212 58 c-7 -7 -12 -16 -12 -22 0 -5 6 -1 14 10 12 16 17 17 28 6 11
-11 10 -16 -6 -28 -11 -8 -15 -14 -9 -14 6 0 16 7 23 15 10 12 10 18 0 30 -15
18 -22 19 -38 3z"/>
</g>
</svg>
