<?xml version="1.0" standalone="no"?>
<!DOCTYPE svg PUBLIC "-//W3C//DTD SVG 20010904//EN"
 "http://www.w3.org/TR/2001/REC-SVG-20010904/DTD/svg10.dtd">
<svg version="1.0" xmlns="http://www.w3.org/2000/svg"
 width="29.000000pt" height="30.000000pt" viewBox="0 0 29.000000 30.000000"
 preserveAspectRatio="xMidYMid meet">

<g transform="translate(0.000000,30.000000) scale(0.100000,-0.100000)"
fill="#000000" stroke="none">
<path d="M156 288 c-57 -15 -129 -90 -144 -150 -30 -117 5 -149 123 -117 41
12 135 94 135 119 0 7 -13 -5 -29 -27 -30 -41 -87 -83 -113 -83 -7 0 -35 22
-61 48 -40 40 -47 53 -42 74 8 29 62 98 77 98 6 0 3 -10 -8 -22 l-19 -22 30
21 c17 11 37 23 45 27 8 3 2 4 -15 1 l-30 -5 33 17 32 17 50 -49 c28 -27 50
-56 51 -65 1 -27 18 23 18 57 1 38 -8 63 -22 63 -7 0 -7 -4 1 -12 13 -13 17
-78 4 -78 -9 0 -82 73 -82 82 0 4 15 9 33 11 32 4 32 4 2 4 -16 1 -48 -4 -69
-9z m-94 -215 c21 -20 38 -41 38 -45 0 -13 -65 -9 -78 4 -13 13 -17 78 -5 78
4 0 24 -17 45 -37z"/>
<path d="M160 196 c0 -2 7 -9 15 -16 12 -10 15 -10 15 4 0 9 -7 16 -15 16 -8
0 -15 -2 -15 -4z"/>
<path d="M143 166 c1 -6 -4 -10 -10 -8 -7 1 -13 -5 -13 -13 0 -8 7 -15 15 -15
8 0 14 6 13 13 -2 6 3 11 10 10 6 -2 12 3 12 10 0 8 -6 14 -14 14 -8 0 -14 -5
-13 -11z"/>
<path d="M100 125 c0 -8 7 -15 16 -15 14 0 14 3 4 15 -7 8 -14 15 -16 15 -2 0
-4 -7 -4 -15z"/>
</g>
</svg>
