<?xml version="1.0" standalone="no"?>
<!DOCTYPE svg PUBLIC "-//W3C//DTD SVG 20010904//EN"
 "http://www.w3.org/TR/2001/REC-SVG-20010904/DTD/svg10.dtd">
<svg version="1.0" xmlns="http://www.w3.org/2000/svg"
 width="38.000000pt" height="39.000000pt" viewBox="0 0 38.000000 39.000000"
 preserveAspectRatio="xMidYMid meet">

<g transform="translate(0.000000,39.000000) scale(0.100000,-0.100000)"
fill="#000000" stroke="none">
<path d="M258 364 c-27 -13 -48 -26 -48 -29 0 -3 21 5 48 17 57 27 56 27 51
32 -2 2 -25 -7 -51 -20z"/>
<path d="M63 333 l-33 -4 0 -145 0 -145 54 6 c56 7 96 1 96 -16 0 -6 -34 -9
-82 -7 l-83 3 -5 135 -6 135 -2 -130 c-1 -91 2 -135 10 -143 17 -17 339 -17
356 0 8 8 11 52 10 143 l-2 130 -6 -135 -5 -135 -82 -3 c-52 -2 -83 1 -83 7 0
11 22 18 75 24 17 2 -30 3 -102 2 l-133 -2 0 133 0 133 54 6 c34 5 61 3 75 -4
11 -7 21 -8 21 -3 0 19 -49 24 -127 15z"/>
<path d="M338 191 c3 -127 1 -140 -15 -144 -14 -4 -13 -5 5 -6 22 -1 22 0 22
144 0 80 -3 145 -7 145 -5 0 -7 -63 -5 -139z"/>
<path d="M248 307 c-16 -6 -28 -15 -28 -19 0 -5 14 -2 30 7 17 9 30 18 30 20
0 3 -1 5 -2 4 -2 -1 -15 -6 -30 -12z"/>
<path d="M245 265 c-25 -12 -26 -14 -5 -9 14 4 29 10 35 15 12 12 5 11 -30 -6z"/>
<path d="M93 263 c15 -2 37 -2 50 0 12 2 0 4 -28 4 -27 0 -38 -2 -22 -4z"/>
<path d="M240 225 c-14 -8 -20 -14 -15 -14 6 0 21 6 35 14 14 8 21 14 15 14
-5 0 -21 -6 -35 -14z"/>
<path d="M78 223 c7 -3 16 -2 19 1 4 3 -2 6 -13 5 -11 0 -14 -3 -6 -6z"/>
<path d="M103 193 c9 -2 25 -2 35 0 9 3 1 5 -18 5 -19 0 -27 -2 -17 -5z"/>
<path d="M243 190 c-34 -14 -28 -21 7 -9 17 6 30 13 30 15 0 6 -12 4 -37 -6z"/>
<path d="M98 153 c12 -2 30 -2 40 0 9 3 -1 5 -23 4 -22 0 -30 -2 -17 -4z"/>
<path d="M234 144 c-19 -15 -19 -15 1 -6 11 5 27 12 35 15 13 5 13 6 -1 6 -8
1 -24 -6 -35 -15z"/>
<path d="M248 103 c-32 -14 -58 -29 -58 -33 0 -5 27 5 60 22 33 16 60 31 60
34 0 5 4 7 -62 -23z"/>
<path d="M93 113 c15 -2 37 -2 50 0 12 2 0 4 -28 4 -27 0 -38 -2 -22 -4z"/>
</g>
</svg>
