<?xml version="1.0" standalone="no"?>
<!DOCTYPE svg PUBLIC "-//W3C//DTD SVG 20010904//EN"
 "http://www.w3.org/TR/2001/REC-SVG-20010904/DTD/svg10.dtd">
<svg version="1.0" xmlns="http://www.w3.org/2000/svg"
 width="46.000000pt" height="38.000000pt" viewBox="0 0 46.000000 38.000000"
 preserveAspectRatio="xMidYMid meet">

<g transform="translate(0.000000,38.000000) scale(0.100000,-0.100000)"
fill="#000000" stroke="none">
<path d="M103 255 c0 -66 2 -101 4 -77 3 28 9 42 19 42 8 0 14 -6 14 -12 0
-10 2 -10 8 -1 4 6 34 13 66 15 63 3 85 20 72 53 -5 14 -9 16 -18 7 -21 -21
-30 -13 -26 23 2 19 0 35 -4 35 -4 0 -8 -16 -8 -35 0 -47 -18 -45 -23 3 l-4
37 -1 -37 c-1 -21 -6 -38 -11 -38 -6 0 -12 17 -14 38 l-4 37 -1 -37 c-2 -46
-21 -51 -23 -5 -1 23 -3 26 -6 10 -8 -40 -32 -27 -36 20 -2 23 -4 -12 -4 -78z
m42 15 c4 -6 33 -9 71 -6 56 3 65 1 62 -13 -3 -13 -19 -17 -86 -19 -82 -3 -82
-3 -82 23 0 25 23 35 35 15z"/>
<path d="M350 331 c0 -29 -5 -41 -17 -44 -17 -4 -17 -5 0 -6 11 -1 17 -9 17
-27 0 -17 -5 -25 -12 -22 -7 3 -26 -11 -43 -31 l-29 -36 30 28 c41 37 52 34
57 -15 2 -24 4 10 5 75 1 64 0 117 -3 117 -3 0 -5 -18 -5 -39z"/>
<path d="M42 288 c-2 -64 -5 -78 -18 -78 -13 0 -15 9 -12 49 1 27 0 47 -4 44
-5 -2 -8 -25 -8 -50 0 -36 4 -46 20 -50 13 -3 20 -14 20 -29 0 -12 3 -25 8
-27 4 -3 6 29 4 71 -4 124 -9 153 -10 70z"/>
<path d="M410 253 c-3 -61 -2 -109 3 -106 4 2 7 15 7 27 0 15 7 26 20 29 16 4
20 14 20 50 0 25 -3 48 -7 50 -5 3 -6 -17 -5 -44 3 -39 1 -49 -12 -49 -12 0
-16 15 -18 78 -3 73 -4 71 -8 -35z"/>
<path d="M260 330 c0 -6 7 -10 15 -10 8 0 15 2 15 4 0 2 -7 6 -15 10 -8 3 -15
1 -15 -4z"/>
<path d="M160 147 c4 -41 5 -41 8 -8 2 18 0 37 -5 42 -5 5 -6 -11 -3 -34z"/>
<path d="M273 105 c0 -22 2 -30 4 -17 2 12 2 30 0 40 -3 9 -5 -1 -4 -23z"/>
<path d="M154 40 c1 -24 4 -25 61 -26 l60 0 -57 3 c-49 3 -57 7 -61 26 -3 18
-4 18 -3 -3z"/>
</g>
</svg>
