<svg xmlns="http://www.w3.org/2000/svg" width="200" height="200" viewBox="0 0 530 471" version="1.1"><path d="M 29.492 235.500 C 29.492 365.300, 29.608 418.251, 29.750 353.170 C 29.892 288.088, 29.892 181.888, 29.750 117.170 C 29.608 52.451, 29.492 105.700, 29.492 235.500 M 500.492 235.500 C 500.492 365.300, 500.608 418.251, 500.750 353.170 C 500.892 288.088, 500.892 181.888, 500.750 117.170 C 500.608 52.451, 500.492 105.700, 500.492 235.500 M 396.381 61.250 C 395.976 61.938, 395.002 63.625, 394.217 65 C 392.847 67.398, 392.857 67.418, 394.463 65.500 C 395.384 64.400, 396.499 62.871, 396.941 62.102 C 397.589 60.976, 398.499 61.243, 401.623 63.476 L 405.500 66.248 402 63.151 C 398.078 59.680, 397.435 59.463, 396.381 61.250 M 406.243 66.583 C 406.569 67.111, 408.976 69.080, 411.593 70.959 C 414.209 72.838, 416.084 73.944, 415.757 73.417 C 415.431 72.889, 413.024 70.920, 410.407 69.041 C 407.791 67.162, 405.916 66.056, 406.243 66.583 M 423.500 79.419 C 425.150 80.837, 428.525 83.384, 431 85.079 C 434.456 87.445, 434.804 87.562, 432.500 85.581 C 430.850 84.163, 427.475 81.616, 425 79.921 C 421.544 77.555, 421.196 77.438, 423.500 79.419 M 436 88.358 C 436 88.623, 438.894 90.965, 442.430 93.562 C 448.831 98.261, 448.853 98.295, 447.312 100.892 L 445.763 103.500 447.867 101 L 449.971 98.500 447.235 96.251 C 442.847 92.644, 436 87.833, 436 88.358 M 377.381 91.250 C 376.976 91.938, 376.002 93.625, 375.217 95 C 373.846 97.400, 373.856 97.420, 375.468 95.500 C 377.499 93.080, 379.250 90, 378.594 90 C 378.332 90, 377.786 90.563, 377.381 91.250 M 372.381 99.250 C 371.976 99.938, 371.002 101.625, 370.217 103 C 368.846 105.400, 368.856 105.420, 370.468 103.500 C 372.499 101.080, 374.250 98, 373.594 98 C 373.332 98, 372.786 98.563, 372.381 99.250 M 365.381 110.250 C 364.976 110.938, 364.002 112.625, 363.217 114 C 361.846 116.400, 361.856 116.420, 363.468 114.500 C 365.499 112.080, 367.250 109, 366.594 109 C 366.332 109, 365.786 109.563, 365.381 110.250 M 430.615 127.500 C 429.727 128.875, 428.272 131.238, 427.381 132.750 L 425.763 135.500 427.774 133.066 C 430.151 130.191, 433.302 125, 432.672 125 C 432.429 125, 431.503 126.125, 430.615 127.500 M 353.381 129.250 C 352.976 129.938, 352.002 131.625, 351.217 133 C 349.846 135.400, 349.856 135.420, 351.468 133.500 C 353.499 131.080, 355.250 128, 354.594 128 C 354.332 128, 353.786 128.563, 353.381 129.250 M 424.381 137.250 C 423.976 137.938, 423.002 139.625, 422.217 141 C 420.846 143.400, 420.856 143.420, 422.468 141.500 C 424.499 139.080, 426.250 136, 425.594 136 C 425.332 136, 424.786 136.563, 424.381 137.250 M 419.381 145.250 C 418.976 145.938, 418.002 147.625, 417.217 149 C 415.846 151.400, 415.856 151.420, 417.468 149.500 C 419.499 147.080, 421.250 144, 420.594 144 C 420.332 144, 419.786 144.563, 419.381 145.250 M 409.381 161.250 C 408.976 161.938, 408.002 163.625, 407.217 165 C 405.846 167.400, 405.856 167.420, 407.468 165.500 C 409.499 163.080, 411.250 160, 410.594 160 C 410.332 160, 409.786 160.563, 409.381 161.250 M 399.381 177.250 C 398.976 177.938, 398.002 179.625, 397.217 181 C 395.846 183.400, 395.856 183.420, 397.468 181.500 C 399.499 179.080, 401.250 176, 400.594 176 C 400.332 176, 399.786 176.563, 399.381 177.250 M 394.381 185.250 C 393.976 185.938, 393.002 187.625, 392.217 189 C 390.846 191.400, 390.856 191.420, 392.468 189.500 C 394.499 187.080, 396.250 184, 395.594 184 C 395.332 184, 394.786 184.563, 394.381 185.250 M 389.381 193.250 C 388.976 193.938, 388.002 195.625, 387.217 197 C 385.846 199.400, 385.856 199.420, 387.468 197.500 C 389.499 195.080, 391.250 192, 390.594 192 C 390.332 192, 389.786 192.563, 389.381 193.250 M 384.381 201.250 C 383.976 201.938, 383.002 203.625, 382.217 205 C 380.846 207.400, 380.856 207.420, 382.468 205.500 C 384.499 203.080, 386.250 200, 385.594 200 C 385.332 200, 384.786 200.563, 384.381 201.250 M 122.458 205.250 L 119.542 208.500 122.506 205.742 L 125.470 202.985 150.485 227.742 L 175.500 252.500 150.508 227.250 C 136.762 213.363, 125.483 202, 125.445 202 C 125.406 202, 124.062 203.463, 122.458 205.250 M 379.381 209.250 C 378.976 209.938, 378.002 211.625, 377.217 213 C 375.846 215.400, 375.856 215.420, 377.468 213.500 C 379.499 211.080, 381.250 208, 380.594 208 C 380.332 208, 379.786 208.563, 379.381 209.250 M 115.453 213.250 L 111.500 217.500 115.750 213.547 C 119.702 209.871, 120.460 209, 119.703 209 C 119.540 209, 117.627 210.912, 115.453 213.250 M 106.946 222.750 L 103.500 226.500 107.250 223.054 C 109.313 221.158, 111 219.471, 111 219.304 C 111 218.540, 110.154 219.260, 106.946 222.750 M 369.381 225.250 C 368.976 225.938, 368.002 227.625, 367.217 229 C 365.846 231.400, 365.856 231.420, 367.468 229.500 C 369.499 227.080, 371.250 224, 370.594 224 C 370.332 224, 369.786 224.563, 369.381 225.250 M 99 231.500 C 96.571 233.975, 94.809 236, 95.084 236 C 95.359 236, 97.571 233.975, 100 231.500 C 102.429 229.025, 104.191 227, 103.916 227 C 103.641 227, 101.429 229.025, 99 231.500 M 89.058 242.724 L 83.956 248.449 133.849 298.474 C 161.290 325.988, 198.495 363.462, 216.528 381.750 C 234.560 400.038, 250.031 414.971, 250.907 414.937 C 252.076 414.890, 251.968 414.654, 250.500 414.049 C 249.400 413.596, 239.994 404.512, 229.597 393.863 C 219.200 383.213, 182.413 346.127, 147.848 311.448 L 85.002 248.397 90.081 242.698 C 92.874 239.564, 94.935 237, 94.660 237 C 94.385 237, 91.864 239.576, 89.058 242.724 M 359.381 241.250 C 358.976 241.938, 358.002 243.625, 357.217 245 C 355.846 247.400, 355.856 247.420, 357.468 245.500 C 359.499 243.080, 361.250 240, 360.594 240 C 360.332 240, 359.786 240.563, 359.381 241.250 M 279.381 246.250 C 278.976 246.938, 278.002 248.625, 277.217 250 C 275.846 252.400, 275.856 252.420, 277.468 250.500 C 279.499 248.080, 281.250 245, 280.594 245 C 280.332 245, 279.786 245.563, 279.381 246.250 M 272.381 257.250 C 271.976 257.938, 271.002 259.625, 270.217 261 C 268.846 263.400, 268.856 263.420, 270.468 261.500 C 272.499 259.080, 274.250 256, 273.594 256 C 273.332 256, 272.786 256.563, 272.381 257.250 M 342.381 268.250 C 341.976 268.938, 341.002 270.625, 340.217 272 C 338.846 274.400, 338.856 274.420, 340.468 272.500 C 342.499 270.080, 344.250 267, 343.594 267 C 343.332 267, 342.786 267.563, 342.381 268.250 M 215.500 292 C 227.040 303.550, 236.707 313, 236.982 313 C 237.257 313, 228.040 303.550, 216.500 292 C 204.960 280.450, 195.293 271, 195.018 271 C 194.743 271, 203.960 280.450, 215.500 292 M 317.381 308.250 C 316.976 308.938, 316.002 310.625, 315.217 312 C 313.846 314.400, 313.856 314.420, 315.468 312.500 C 317.499 310.080, 319.250 307, 318.594 307 C 318.332 307, 317.786 307.563, 317.381 308.250 M 312.381 316.250 C 311.976 316.938, 311.002 318.625, 310.217 320 C 308.846 322.400, 308.856 322.420, 310.468 320.500 C 312.499 318.080, 314.250 315, 313.594 315 C 313.332 315, 312.786 315.563, 312.381 316.250 M 307.381 324.250 C 306.976 324.938, 306.002 326.625, 305.217 328 C 303.846 330.400, 303.856 330.420, 305.468 328.500 C 307.499 326.080, 309.250 323, 308.594 323 C 308.332 323, 307.786 323.563, 307.381 324.250 M 297.381 340.250 C 296.976 340.938, 296.002 342.625, 295.217 344 C 293.846 346.400, 293.856 346.420, 295.468 344.500 C 297.499 342.080, 299.250 339, 298.594 339 C 298.332 339, 297.786 339.563, 297.381 340.250 M 292.381 348.250 C 291.976 348.938, 291.002 350.625, 290.217 352 C 288.846 354.400, 288.856 354.420, 290.468 352.500 C 292.499 350.080, 294.250 347, 293.594 347 C 293.332 347, 292.786 347.563, 292.381 348.250 M 287.381 356.250 C 286.976 356.938, 286.002 358.625, 285.217 360 C 283.846 362.400, 283.856 362.420, 285.468 360.500 C 287.499 358.080, 289.250 355, 288.594 355 C 288.332 355, 287.786 355.563, 287.381 356.250 M 282.381 364.250 C 281.976 364.938, 281.002 366.625, 280.217 368 C 278.846 370.400, 278.856 370.420, 280.468 368.500 C 282.499 366.080, 284.250 363, 283.594 363 C 283.332 363, 282.786 363.563, 282.381 364.250 M 255.381 407.250 C 254.976 407.938, 254.002 409.625, 253.217 411 C 251.846 413.400, 251.856 413.420, 253.468 411.500 C 255.499 409.080, 257.250 406, 256.594 406 C 256.332 406, 255.786 406.563, 255.381 407.250" stroke="none" fill="#57bf64" fill-rule="evenodd"/><path d="M 30 235.500 L 30 471 265 471 L 500 471 500 235.500 L 500 0 265 0 L 30 0 30 235.500 M 342.447 146.750 C 312.280 194.463, 276.376 251.275, 262.661 273 C 248.945 294.725, 237.665 312.583, 237.593 312.685 C 237.436 312.908, 200.317 276.349, 156.953 233.262 L 125.406 201.917 104.681 225.183 L 83.956 248.449 133.849 298.474 C 161.290 325.988, 198.495 363.462, 216.528 381.750 C 234.560 400.037, 249.806 415, 250.408 415 C 251.009 415, 257.628 405.213, 265.116 393.250 C 272.604 381.288, 312.395 317.725, 353.541 252 C 394.688 186.275, 433.189 124.749, 439.100 115.277 L 449.847 98.053 423.906 79.027 C 409.639 68.562, 397.815 60, 397.631 60 C 397.447 60, 372.614 99.037, 342.447 146.750" stroke="none" fill="#3bb44b" fill-rule="evenodd"/></svg>